# xmcd CD database file
# Copyright (C) 1993-1996 Ti Kan
#
# Track frame offsets:
# 150
# 12182
# 25372
# 40757
# 52432
# 67820
# 81017
# 93617
# 109000
# 129382
#
# Disc length: 2027 seconds
#
# Revision: 0
# Processed by: cddbd v1.4b41PL1 Copyright (c) Steve Scherf et al.
# Submitted via: inCDius 1.1b5
#
DISCID=7e07e90a
DTITLE=Larry Gatlin and The Gatlin Brothers - Greatest Hits Vol. 2
DYEAR=1900
DGENRE=
TTITLE0=All The Gold In California
TTITLE1=Almost Called Her Baby By Mistake
TTITLE2=She Used To Sing On Sunday
TTITLE3=What Are We Doin' Lonesome
TTITLE4=Sure Feels Like Love
TTITLE5=Houston (Means I'm One Day Closer To You)
TTITLE6=Take Me To Your Lovin' Place
TTITLE7=Taking Somebody With Me When I Fall
TTITLE8=We're Number One
TTITLE9=Midnight Choir (Mogen David)
EXTD=
EXTT0=
EXTT1=
EXTT2=
EXTT3=
EXTT4=
EXTT5=
EXTT6=
EXTT7=
EXTT8=
EXTT9=
PLAYORDER=
